<svg width="136" height="165" fill="none" xmlns="http://www.w3.org/2000/svg"><g clip-path="url(#a)"><path d="M93 39c8 0 15-5 17-13l6 1a2 2 0 0 0 0-4l-5-1v-1l-1-9c-1-3-3-3-3-3L85 6c-3 0-4 2-4 2l-3 5-2 9c0 9 7 17 17 17ZM132 79l-27-3-9-21-6-8c-6-6-17-4-17-4l-32 7c-8 2-8 10-8 10l-1 4-15-3a3 3 0 0 0-3 3l-8 38 2 3 52 10h-1l-10-2-3 17-23 21a7 7 0 1 0 10 11l29-24 3-3 6-17c1-2 5-1 5-1l22 8 8 29 1 2a7 7 0 0 0 14-4l-6-32c-1-6-5-7-5-7l-22-13c-2 0-1-2-1-2l4-15 2 6s2 3 5 4h33a7 7 0 0 0 1-14ZM60 63l-2 6 10 2-20-4 1-2 11-2Zm-2 46-45-9 6-32 12 2-1 12-1 4v1a7 7 0 1 0 15-1l3-13 17 3-6 33ZM25 18h38l2-2c0-2-1-2-2-2H25c-1 0-2 0-2 2l2 2ZM38 24c-1 0-2 0-2 2l2 2h23l2-2c0-2-1-2-2-2H38Z" fill="#fff"/><path d="M87 33c8 0 15-5 17-13l5 1h1a2 2 0 0 0 0-4l-5-1v-1l-2-9c0-3-2-3-2-3-10-3-20-3-22-3-3 0-4 2-4 2l-3 5c-2 3-2 6-2 9 0 9 7 17 17 17ZM126 73l-27-3-9-21-6-8c-6-6-17-4-17-4l-32 7c-8 2-8 10-8 10l-3 22-1 4v1a7 7 0 1 0 15-1l5-21 11-2-2 6 10 2c2 0 3 2 3 4l-8 38c0 1-1 2-3 2h-1l-10-2-3 17-23 21a7 7 0 1 0 9 11l30-24 3-4 6-16c0-2 5-1 5-1l22 8 8 29 1 2a7 7 0 0 0 14-5l-6-31c-1-6-5-7-5-7L82 94c-2 0-1-2-1-2l4-15 2 6s2 3 5 4h33a7 7 0 0 0 1-14Z" fill="#3A3A3A"/><path d="M54 110c2 0 3-1 3-3l8-38c0-2-1-3-3-4l-20-3-1 5 17 4-6 32-45-9 6-32 12 2 1-6-15-2a3 3 0 0 0-4 2L0 96l2 4 52 10Z" fill="#F0C42E"/><path d="M59 9c0 2-1 2-2 2H19c-1 0-2 0-2-2l2-2h38l2 2ZM57 19c0 2-1 2-2 2H32c-1 0-2 0-2-2l2-2h23l2 2Z" fill="#F0C52E"/></g><defs><clipPath id="a"><path fill="#fff" transform="translate(0 1)" d="M0 0h136v164H0z"/></clipPath></defs></svg>