<svg width="125" height="100" fill="none" xmlns="http://www.w3.org/2000/svg"><path fill="#FFE17F" d="M0 0h125v100H0z"/><g clip-path="url(#a)" fill="#000"><path d="m86 50-7-8h-9v-5l-2-2H41l-2 2 2 1h26v22H55c-1-2-3-4-5-4s-4 3-4 5c0 3 2 5 4 5s4-1 5-3h13l2-2V45h7l6 7v8h-2c-1-2-3-3-5-3s-4 2-4 4c0 3 2 5 4 5s4-1 5-3h4l1-2V50ZM50 63l-1-2 1-2 2 2-2 2Zm26 0-1-2 1-2 2 2-2 2Z"/><path d="m58 45 2-2-2-1H44l-2 1 2 2h14ZM57 50l-2-2H41l-2 2 2 1h14l2-1Z"/></g><defs><clipPath id="a"><path fill="#fff" transform="translate(39 35)" d="M0 0h47v31H0z"/></clipPath></defs></svg>