<svg width="115" height="33" fill="none" xmlns="http://www.w3.org/2000/svg"><path d="M0 13v3h3v-3H0ZM12 5 8 6V0H6v16h2v-6c0-2 1-3 3-3s3 1 3 3v6h2V9c0-3-2-4-4-4ZM27 5h-5V1h-2v4h-2v2h2v6c0 2 1 3 3 3h4v-2h-4l-1-1V7h5V5ZM41 5c-1 0-3 0-3 2l-4-2-3 1V5h-2v10h2v-5c0-2 1-3 3-3l2 2v6h2v-5c0-3 1-3 3-3l2 2v6h2V9c0-3-1-4-4-4ZM48 13c0 1 1 2 3 2h2v-2h-2l-1-1V0h-2v13ZM29 20l-4-2c-3 0-5 2-5 6 0 3 2 5 5 5l4-2v2h2V18h-2v2Zm-4 7c-2 0-3-1-3-3s1-4 3-4c3 0 4 2 4 4 0 1-1 3-4 3ZM44 22c0-2-2-4-5-4-4 0-6 2-6 6 0 3 2 5 6 5 3 0 5-2 5-4h-2l-3 2c-2 0-4-1-4-3s2-4 4-4l3 2h2ZM55 20l-4-2c-3 0-5 2-5 6 0 3 2 5 5 5l4-2v2h2V18h-2v2Zm-3 7c-3 0-4-1-4-3s1-4 4-4c2 0 3 2 3 4 0 1-1 3-3 3ZM69 20l-4-2c-3 0-6 2-6 6 0 3 3 5 6 5l4-2v2h2V13h-2v7Zm-4 7c-2 0-3-1-3-3s1-4 3-4 4 2 4 4-2 3-4 3ZM78 18c-3 0-5 2-5 6 0 3 2 5 5 5s5-1 6-3h-3l-3 1c-1 0-3-1-3-3h9c0-3-2-6-6-6Zm0 2 4 2h-7l3-2ZM98 18l-3 2-4-2-3 2v-2h-2v11h2v-6c0-2 1-3 3-3 1 0 2 1 2 3v6h2v-6c0-2 2-3 3-3s2 1 2 3v6h2v-7c0-2-1-4-4-4ZM109 27l-3-9h-2l4 12-1 1h-3v2h3c2 0 3-1 3-3l5-12h-2l-4 9Z" fill="#FFC700"/></svg>