<svg width="160" height="160" fill="none" xmlns="http://www.w3.org/2000/svg"><path d="m97 37-1-1H53l-1 1v4h45v-4ZM98 118h-9v-11h-7v3H63l-3-2H48c-2 0-4 1-4 3v3c0 2 2 4 4 4h12l3-3h19v3H72l-1 1v3l1 1h26l1-1v-3l-1-1ZM105 48c-1-3-4-5-7-5H51c-4 0-7 3-7 7v47c0 4 3 7 7 7h47c4 0 7-3 7-7V87a23 23 0 0 0 0-39ZM56 98a6 6 0 1 1 0-12 6 6 0 0 1 0 12Zm6-32-1 1h-9l-2-1V51l2-1h9l1 1v15Zm30 22a20 20 0 1 1 0-40 20 20 0 0 1 0 40Z" fill="#363636"/><path d="M92 80a12 12 0 1 0 0-24 12 12 0 0 0 0 24ZM76 69a1 1 0 1 0 0-3 1 1 0 0 0 0 3ZM108 69a1 1 0 1 0 0-3 1 1 0 0 0 0 3ZM83 55a1 1 0 1 0 0-2 1 1 0 0 0 0 2ZM100 83a1 1 0 1 0 0-3 1 1 0 0 0 0 3ZM100 55a1 1 0 1 0 0-3 1 1 0 0 0 0 3ZM84 83a1 1 0 1 0 0-3 1 1 0 0 0 0 3Z" fill="#363636"/></svg>