<svg width="145" height="36" fill="none" xmlns="http://www.w3.org/2000/svg"><path d="M27 0v35h-7v-2c-2 2-4 3-8 3-6 0-12-6-12-13C0 15 6 9 12 9c4 0 6 2 8 4V0h7Zm-7 23c0-4-3-6-6-6-4 0-6 2-6 6s2 6 6 6c3 0 6-2 6-6ZM44 29l5-2 6 4c-3 3-7 5-11 5-9 0-14-6-14-13 0-8 5-14 13-14 7 0 13 6 13 14v3H38c1 2 3 3 6 3Zm4-9c0-3-3-4-5-4-3 0-5 1-6 4h11ZM82 10l-9 25h-9l-9-25h8l6 16 5-16h8ZM83 10h8v25h-8V10ZM94 23c0-8 5-14 13-14 5 0 9 3 11 7l-6 4c-1-2-3-3-5-3-3 0-6 2-6 6 0 3 3 5 6 5l5-2 6 3c-2 4-6 7-11 7-8 0-13-6-13-13ZM133 29l5-2 6 4c-3 3-6 5-11 5-9 0-14-6-14-13 0-8 5-14 13-14s13 6 13 14v3h-18c1 2 3 3 6 3Zm5-9c-1-3-4-4-6-4-3 0-5 1-5 4h11Z" fill="#000"/></svg>